<?xml version="1.0" encoding="utf-8"?>
<!-- Generator: Adobe Illustrator 22.0.1, SVG Export Plug-In . SVG Version: 6.00 Build 0)  -->
<svg version="1.1" id="Layer_1" xmlns="http://www.w3.org/2000/svg" xmlns:xlink="http://www.w3.org/1999/xlink" x="0px" y="0px"
	 viewBox="0 0 344 344" style="enable-background:new 0 0 344 344;" xml:space="preserve">
<style type="text/css">
	.st0{fill:#FFFFFF;}
</style>
<g>
	<path class="st0" d="M0,344C0,229.3,0,114.7,0,0c114.7,0,229.3,0,344,0c0,114.7,0,229.3,0,344C229.3,344,114.7,344,0,344z
		 M172,250.5c-0.1,43.7,34.7,78.9,78.4,79.2c43.6,0.3,79.3-35.1,79.3-78.8c0.1-43.5-35.1-78.8-78.7-78.9
		C207.4,171.9,172.1,206.9,172,250.5z M286.7,164.3c0-9.8-0.1-19.2,0.1-28.4c0.1-5.2-1.6-9.3-5.3-12.9
		c-29.6-29.5-59.2-59.1-88.7-88.7c-3.8-3.8-7.9-5.5-13.3-5.5c-29.2,0.2-58.3,0-87.5,0.1c-21.6,0-34.8,13.2-34.8,35
		c0,72.2,0,144.3,0,216.5c0,21.8,13.1,35,34.7,35c28.5,0,57,0,85.5,0c1.6,0,3.1-0.2,4.7-0.3c-4.3-6-8.5-11.6-12.2-17.5
		c-1.7-2.8-3.6-3.7-6.8-3.7c-23.7,0.1-47.3,0.1-71,0.1c-10.3,0-14.2-3.9-14.2-14.2c0-71.7,0-143.3,0-215c0-10.1,4.5-14.6,14.6-14.6
		c24.7,0,49.3,0,74,0c1.6,0,3.2,0.1,5.3,0.2c0,2.1,0,3.9,0,5.7c0,17.5,0,35,0,52.5c0,21.4,13.1,34.6,34.5,34.7c17.7,0.1,35.3,0,53,0
		c1.8,0,3.5,0,5.6,0c0,4.6-0.2,8.4,0.1,12.2c0.1,1.2,1.1,3,2,3.3C273.4,160.7,279.6,162.3,286.7,164.3z M169,204.9
		c-2.1-3.8-4-7.5-6.1-11.2c-2.9-5-7.5-7.6-13.3-7.2c-5.8,0.4-9.7,3.6-12.4,8.7c-1.9,3.7-4.2,7.3-6.9,10.5c-3.6,4.2-7.5,8-11.6,11.6
		c-2.6,2.3-5.7,4.3-8.9,5.8c-6.1,2.8-9.8,8.8-8.8,15.8c0.9,6.3,6.4,11.4,12.9,11.9c6.1,0.5,12.1-3.5,14.2-9.6
		c0.6-1.5,0.7-3.5,1.7-4.6c6.8-7,13.7-13.8,20.7-20.8c3.6,3.3,6.9,6.2,10.1,9.2C163.6,217.8,166.4,211.1,169,204.9z"/>
	<path d="M172,250.5c0.1-43.6,35.4-78.6,79-78.5c43.6,0.1,78.8,35.4,78.7,78.9c-0.1,43.7-35.8,79.2-79.3,78.8
		C206.7,329.4,171.9,294.2,172,250.5z M258,276.8c0-7.5,0-13.4,0-19.4c0-18.5,0-37,0-55.5c0-6.2-3.7-9.3-9.1-8
		c-4.5,1.1-5.2,4.5-5.2,8.5c0,22.7,0,45.3,0,68c0,1.7,0,3.3,0,5c-0.5,0.2-1,0.3-1.5,0.5c-7.3-7.5-14.5-15.1-22-22.4
		c-3.3-3.3-7.3-3.2-10.2-0.3c-2.9,2.9-3,6.8,0.3,10.2c11.7,11.9,23.5,23.6,35.3,35.3c3.2,3.2,6.9,3.4,10.2,0.1
		c12-11.8,23.9-23.7,35.7-35.7c2.8-2.9,3.2-6.2,0.6-9.5c-2.9-3.6-7.4-3.6-11.3,0.2C273.5,261,266.3,268.4,258,276.8z"/>
	<path d="M286.7,164.3c-7.1-2-13.4-3.6-19.5-5.5c-1-0.3-2-2.1-2-3.3c-0.3-3.8-0.1-7.6-0.1-12.2c-2.1,0-3.8,0-5.6,0
		c-17.7,0-35.3,0-53,0c-21.4-0.1-34.5-13.3-34.5-34.7c0-17.5,0-35,0-52.5c0-1.8,0-3.6,0-5.7c-2.1-0.1-3.7-0.2-5.3-0.2
		c-24.7,0-49.3,0-74,0c-10.1,0-14.6,4.5-14.6,14.6c0,71.7,0,143.3,0,215c0,10.3,3.9,14.1,14.2,14.2c23.7,0,47.3,0.1,71-0.1
		c3.2,0,5,0.9,6.8,3.7c3.7,5.9,7.9,11.4,12.2,17.5c-1.6,0.1-3.1,0.3-4.7,0.3c-28.5,0-57,0-85.5,0c-21.6,0-34.7-13.2-34.7-35
		c0-72.2,0-144.3,0-216.5c0-21.8,13.1-35,34.8-35c29.2,0,58.3,0.1,87.5-0.1c5.4,0,9.5,1.7,13.3,5.5c29.5,29.7,59.1,59.2,88.7,88.7
		c3.7,3.7,5.4,7.7,5.3,12.9C286.6,145.1,286.7,154.4,286.7,164.3z M247.5,121.8c-18-18-36.1-36-53.9-53.7c0,13.9-0.2,28.8,0.1,43.8
		c0.1,5.4,4.2,9.7,9.5,9.8C218.3,122,233.4,121.8,247.5,121.8z"/>
	<path d="M169,204.9c-2.6,6.3-5.4,13-8.4,20.2c-3.3-3-6.5-5.9-10.1-9.2c-7,7-13.9,13.8-20.7,20.8c-1,1.1-1.2,3-1.7,4.6
		c-2.2,6.1-8.2,10.1-14.2,9.6c-6.5-0.6-12-5.7-12.9-11.9c-1-6.9,2.7-13,8.8-15.8c3.2-1.4,6.3-3.4,8.9-5.8c4.1-3.6,8.1-7.5,11.6-11.6
		c2.7-3.2,5-6.8,6.9-10.5c2.7-5.1,6.6-8.4,12.4-8.7c5.8-0.4,10.3,2.2,13.3,7.2C165,197.3,167,201.1,169,204.9z"/>
	<path class="st0" d="M258,276.8c8.3-8.4,15.5-15.7,22.9-23c3.9-3.8,8.4-3.8,11.3-0.2c2.6,3.3,2.2,6.6-0.6,9.5
		c-11.8,11.9-23.7,23.9-35.7,35.7c-3.3,3.2-7,3.1-10.2-0.1c-11.8-11.7-23.6-23.5-35.3-35.3c-3.3-3.3-3.2-7.3-0.3-10.2
		c2.9-2.9,6.9-3,10.2,0.3c7.4,7.4,14.7,15,22,22.4c0.5-0.2,1-0.3,1.5-0.5c0-1.7,0-3.3,0-5c0-22.7,0-45.3,0-68c0-3.9,0.6-7.4,5.2-8.5
		c5.4-1.3,9.1,1.8,9.1,8c0.1,18.5,0,37,0,55.5C258,263.3,258,269.3,258,276.8z"/>
	<path class="st0" d="M247.5,121.8c-14.2,0-29.2,0.2-44.3-0.1c-5.3-0.1-9.4-4.5-9.5-9.8c-0.3-14.9-0.1-29.9-0.1-43.8
		C211.4,85.7,229.5,103.8,247.5,121.8z"/>
</g>
</svg>
