<?xml version="1.0" encoding="utf-8"?>
<!-- Generator: Adobe Illustrator 22.0.1, SVG Export Plug-In . SVG Version: 6.00 Build 0)  -->
<svg version="1.1" id="Layer_1" xmlns="http://www.w3.org/2000/svg" xmlns:xlink="http://www.w3.org/1999/xlink" x="0px" y="0px"
	 viewBox="0 0 343.8 343.9" style="enable-background:new 0 0 343.8 343.9;" xml:space="preserve">
<style type="text/css">
	.st0{fill:#FFFFFF;}
</style>
<g>
	<path class="st0" d="M272,343.9c-90.6,0-181.3,0-272,0C0,229.3,0,114.7,0,0c114.5,0,229.1,0,343.8,0c0,114.6,0,229.2,0,343.9
		c-23.5,0-47.2,0-70.8,0c1-1.3,2-2.6,3.1-3.8c16.2-16.3,32.5-32.5,48.8-48.8c1.2-1.2,2.4-2.6,4.5-4.8c-14.8,0-28.5,0-42.7,0
		c0-19.4,0-38.2,0-57.1c-9.8,0-19,0-28.7,0c0,19.1,0,37.8,0,57.2c-14.1,0-27.8,0-41.5,0c-0.4,0.6-0.7,1.2-1.1,1.7
		c1.9,1.4,3.9,2.5,5.5,4.1C238,309.6,254.9,326.8,272,343.9z M286.9,200.3c0.2-1.2,0.3-1.8,0.3-2.5c0-26.8,0.1-53.7-0.1-80.5
		c0-2-1.5-4.3-3-5.8c-26.5-26.7-53.2-53.4-79.9-79.9c-1.7-1.7-4.8-2.9-7.3-2.9c-35.8-0.2-71.7-0.1-107.5-0.1
		C69.6,28.7,58,40.2,58,60c0,74.7,0,149.3,0,224c0,19.4,11.7,31.2,31,31.2c36,0,72,0,108,0c1.5,0,3.1-0.2,5.7-0.3
		c-8.8-8.8-16.9-16.6-24.7-24.8c-2.4-2.5-4.8-3.5-8.3-3.5c-25.7,0.1-51.3,0.1-77,0.1c-1.8,0-3.6,0-5.5,0c0-76.8,0-152.9,0-229.1
		c33.5,0,66.5,0,100.1,0c0,24,0,47.6,0,71.6c24.1,0,47.7,0,71.6,0c0,24,0,47.4,0,71.1C268.4,200.3,277.4,200.3,286.9,200.3z
		 M144.5,166.2c-13.5,13.6-26.3,26.4-38.5,38.6c6.1,6.2,12.6,12.8,19.7,20.1c5.6-6,11.3-12.3,17.5-18.9c9.9,9.9,19.3,19.3,28.2,28.2
		c22.5-22.5,44.8-44.8,66.6-66.7c-6.2-6.1-12.7-12.7-19.6-19.6c-15.2,15.2-30.7,30.7-46.2,46.2C162.7,184.6,153.5,175.3,144.5,166.2
		z"/>
	<path d="M272,343.9c-17-17.1-34-34.3-51-51.3c-1.6-1.6-3.7-2.7-5.5-4.1c0.4-0.6,0.7-1.2,1.1-1.7c13.7,0,27.4,0,41.5,0
		c0-19.4,0-38.2,0-57.2c9.7,0,18.9,0,28.7,0c0,18.9,0,37.7,0,57.1c14.2,0,27.9,0,42.7,0c-2.1,2.2-3.2,3.5-4.5,4.8
		c-16.3,16.3-32.5,32.5-48.8,48.8c-1.1,1.1-2.1,2.5-3.1,3.8C272.6,343.9,272.3,343.9,272,343.9z"/>
	<path d="M286.9,200.3c-9.5,0-18.5,0-28,0c0-23.7,0-47.2,0-71.1c-24,0-47.5,0-71.6,0c0-24.1,0-47.6,0-71.6c-33.6,0-66.6,0-100.1,0
		c0,76.1,0,152.3,0,229.1c2,0,3.7,0,5.5,0c25.7,0,51.3,0.1,77-0.1c3.5,0,5.9,1,8.3,3.5c7.9,8.1,15.9,16,24.7,24.8
		c-2.6,0.2-4.1,0.3-5.7,0.3c-36,0-72,0-108,0c-19.4,0-31-11.8-31-31.2c0-74.7,0-149.3,0-224c0-19.7,11.6-31.3,31.4-31.3
		c35.8,0,71.7-0.1,107.5,0.1c2.5,0,5.6,1.2,7.3,2.9c26.8,26.5,53.4,53.1,79.9,79.9c1.5,1.5,3,3.9,3,5.8c0.2,26.8,0.1,53.7,0.1,80.5
		C287.2,198.5,287,199.2,286.9,200.3z"/>
	<path d="M144.5,166.2c9,9.1,18.2,18.4,27.7,27.9c15.5-15.5,31-31,46.2-46.2c6.9,6.9,13.5,13.5,19.6,19.6
		c-21.9,21.9-44.2,44.2-66.6,66.7c-8.9-8.9-18.2-18.3-28.2-28.2c-6.2,6.7-11.9,12.9-17.5,18.9c-7.2-7.3-13.6-13.9-19.7-20.1
		C118.3,192.6,131,179.8,144.5,166.2z"/>
</g>
</svg>
