<svg xmlns="http://www.w3.org/2000/svg" viewBox="0 0 48 48"><path d="M 12.5 4 C 10 4 8 6 8 8.5 L 8 39.5 C 8 42 10 44 12.5 44 L 25.632812 44 C 24.778813 43.111 24.049609 42.103 23.474609 41 L 12.5 41 C 11.7 41 11 40.3 11 39.5 L 11 8.5 C 11 7.7 11.7 7 12.5 7 L 24 7 L 24 15.5 C 24 18 26 20 28.5 20 L 37 20 L 37 22.169922 C 38.045 22.331922 39.053 22.603047 40 22.998047 L 40 18.498047 C 40 18.098047 39.825781 17.724219 39.550781 17.449219 L 39.560547 17.439453 L 26.560547 4.4394531 L 26.550781 4.4492188 C 26.275781 4.1743438 25.9 4 25.5 4 L 12.5 4 z M 27 9.1210938 L 34.876953 16.998047 L 28.5 16.998047 C 27.7 16.998047 27 16.298047 27 15.498047 L 27 9.1210938 z M 23 22 C 18.589 22 15 25.589 15 30 C 15 34.193 18.243516 37.635797 22.353516 37.966797 C 22.129516 37.012797 22 36.023 22 35 C 22 33.227 22.357 31.538047 23 29.998047 L 23 25 C 24.026 25 24.979438 25.312703 25.773438 25.845703 C 26.499437 25.113703 27.318172 24.478547 28.201172 23.935547 C 26.801172 22.732547 24.986 22 23 22 z M 35 24 C 28.925 24 24 28.925 24 35 C 24 41.075 28.925 46 35 46 C 41.075 46 46 41.075 46 35 C 46 28.925 41.075 24 35 24 z M 35 27 C 35.553 27 36 27.448 36 28 L 36 38.585938 L 39.292969 35.292969 C 39.683969 34.901969 40.316031 34.901969 40.707031 35.292969 C 41.098031 35.683969 41.098031 36.316031 40.707031 36.707031 L 35.707031 41.707031 C 35.512031 41.902031 35.256 42 35 42 C 34.744 42 34.487969 41.902031 34.292969 41.707031 L 29.292969 36.707031 C 28.901969 36.316031 28.901969 35.683969 29.292969 35.292969 C 29.683969 34.901969 30.316031 34.901969 30.707031 35.292969 L 34 38.585938 L 34 28 C 34 27.448 34.447 27 35 27 z"></path></svg>