<svg xmlns="http://www.w3.org/2000/svg" viewBox="0 0 48 48"><path d="M 12.5 4 C 10.019 4 8 6.019 8 8.5 L 8 39.5 C 8 41.981 10.019 44 12.5 44 L 33.050781 44 L 31.025391 41.974609 C 30.738391 41.687609 30.519609 41.355 30.349609 41 L 12.5 41 C 11.673 41 11 40.327 11 39.5 L 11 8.5 C 11 7.673 11.673 7 12.5 7 L 24 7 L 24 15.5 C 24 17.981 26.019 20 28.5 20 L 37 20 L 37 26.351562 C 37.456 26.133563 37.961 26 38.5 26 C 39.039 26 39.544 26.133563 40 26.351562 L 40 18.5 C 40 18.0855 39.832047 17.710828 39.560547 17.439453 L 26.560547 4.4394531 C 26.289047 4.1680781 25.914 4 25.5 4 L 12.5 4 z M 27 9.1210938 L 34.878906 17 L 28.5 17 C 27.673 17 27 16.327 27 15.5 L 27 9.1210938 z M 22.5 21 C 21.130937 21 20 22.130937 20 23.5 C 20 25.242432 20.888952 27.126637 22.052734 28.931641 C 21.750344 29.913255 21.422075 30.874122 21.037109 31.740234 C 21.027809 31.743734 21.015109 31.7464 21.005859 31.75 C 18.475156 32.719413 16.692595 33.834085 15.755859 34.708984 C 15.226049 35.205428 15 35.878153 15 36.5 C 15 37.137472 15.247964 37.78312 15.732422 38.267578 C 16.21688 38.752036 16.862528 39 17.5 39 C 18.193028 39 18.762878 38.685238 19.191406 38.337891 C 19.717268 37.910628 20.230682 37.260603 20.837891 36.349609 C 21.365669 35.557784 21.928546 34.51531 22.470703 33.402344 C 23.33558 33.101029 24.252971 32.820054 25.269531 32.597656 C 26.849217 33.933661 28.5783 35 30.5 35 C 31.869063 35 33 33.869063 33 32.5 C 33 31.130937 31.869063 30 30.5 30 C 28.838914 30 27.308222 30.197658 25.855469 30.457031 C 25.516411 30.133474 25.13658 29.919552 24.826172 29.552734 C 24.594083 29.278469 24.474959 28.964123 24.265625 28.673828 C 24.707019 27.027583 25 25.284811 25 23.5 C 25 22.130937 23.869063 21 22.5 21 z M 22.5 23 C 22.786937 23 23 23.213063 23 23.5 C 23 24.318581 22.789657 25.121074 22.666016 25.935547 C 22.294325 25.031234 22 24.144668 22 23.5 C 22 23.213063 22.213063 23 22.5 23 z M 38.5 28 C 37.671 28 37 28.671 37 29.5 L 37 40.878906 L 34.560547 38.439453 C 33.974547 37.853453 33.025453 37.853453 32.439453 38.439453 C 31.853453 39.024453 31.853453 39.975547 32.439453 40.560547 L 37.439453 45.560547 C 37.731453 45.853547 38.116 46 38.5 46 C 38.884 46 39.267547 45.853547 39.560547 45.560547 L 44.560547 40.560547 C 45.145547 39.974547 45.145547 39.025453 44.560547 38.439453 C 43.974547 37.853453 43.025453 37.853453 42.439453 38.439453 L 40 40.878906 L 40 29.5 C 40 28.671 39.329 28 38.5 28 z M 23.4375 30.96875 C 23.458 30.99248 23.485229 31.00762 23.505859 31.03125 C 23.471309 31.04085 23.438669 31.050887 23.404297 31.060547 C 23.415837 31.030237 23.42604 30.99918 23.4375 30.96875 z M 30.5 32 C 30.786937 32 31 32.213063 31 32.5 C 31 32.786937 30.786937 33 30.5 33 C 29.798426 33 29.004234 32.627448 28.21875 32.224609 C 28.983303 32.150325 29.684805 32 30.5 32 z M 19.480469 34.683594 C 19.379569 34.845034 19.269027 35.094477 19.171875 35.240234 C 18.627271 36.057303 18.107826 36.640419 17.929688 36.785156 C 17.71619 36.957422 17.574565 37 17.5 37 C 17.369472 37 17.248027 36.955058 17.146484 36.853516 C 17.044942 36.751973 17 36.630528 17 36.5 C 17 36.354883 17.04779 36.2396 17.121094 36.169922 L 17.123047 36.167969 C 17.491628 35.824104 18.38237 35.268734 19.480469 34.683594 z"></path></svg>