<svg xmlns="http://www.w3.org/2000/svg" viewBox="0 0 16 16"><path fill="#fff" d="M2.5 14.5L2.5 0.5 9.867 0.5 13.5 4.204 13.5 14.5z"></path><path fill="#c74343" d="M9.657,1L13,4.409V14H3V1H9.657 M10.077,0H2v15h12V4L10.077,0L10.077,0z"></path><path fill="#ffd9d9" d="M9.5 4.5L9.5 0.5 9.832 0.5 13.5 4.206 13.5 4.5z"></path><path fill="#c74343" d="M10 1.381L12.593 4H10V1.381M10.04 0H9v5h5V4L10.04 0 10.04 0zM4.38 6.637c.222-.048.522-.078.822-.078.468 0 .839.065 1.097.312.24.21.348.546.348.888 0 .438-.132.749-.342.972-.252.27-.654.39-.984.39-.054 0-.102 0-.156-.006v1.505H4.38V6.637zM5.166 8.478C5.208 8.483 5.25 8.483 5.298 8.483c.396 0 .57-.282.57-.66 0-.354-.144-.629-.51-.629-.072 0-.144.012-.192.029V8.478zM7.122 6.637C7.32 6.589 7.608 6.559 7.92 6.559c.51 0 .863.12 1.121.359C9.389 7.23 9.569 7.764 9.569 8.549c0 .816-.21 1.397-.563 1.71-.276.258-.672.39-1.229.39-.252 0-.498-.024-.654-.048V6.637zM7.908 9.994c.042.013.096.013.138.013.377 0 .708-.372.708-1.487 0-.828-.216-1.331-.69-1.331-.054 0-.108 0-.156.018V9.994zM10.068 6.576h1.757V7.26h-.972v1.038h.912v.653h-.912v1.667h-.786V6.576z"></path></svg>