<?xml version="1.0" encoding="utf-8"?>
<!-- Generator: Adobe Illustrator 22.0.1, SVG Export Plug-In . SVG Version: 6.00 Build 0)  -->
<svg version="1.1" id="Layer_1" xmlns="http://www.w3.org/2000/svg" xmlns:xlink="http://www.w3.org/1999/xlink" x="0px" y="0px"
	 viewBox="0 0 344 344" style="enable-background:new 0 0 344 344;" xml:space="preserve">
<style type="text/css">
	.st0{fill:#FEFEFE;}
	.st1{fill:#FEACC7;}
	.st2{fill:#E62736;}
	.st3{fill:#F24F5A;}
	.st4{fill:#E42232;}
	.st5{fill:#F04551;}
	.st6{fill:#EA313F;}
	.st7{fill:#ED3B49;}
	.st8{fill:#FDA8C3;}
</style>
<g>
	<path class="st0" d="M0,344C0,229.3,0,114.7,0,0c114.7,0,229.3,0,344,0c0,114.7,0,229.3,0,344C229.3,344,114.7,344,0,344z
		 M278,113.9c-1.1-1.4-2.1-2.9-3.4-4.2c-14.7-14.8-29.4-29.5-44.2-44.2c-9.8-9.8-19.6-19.4-29.5-29.1c-0.6-0.2-1.3-0.5-1.9-0.5
		c-40.2,0-80.3-0.1-120.5,0.1c-2.6,0-5.5,1.2-7.9,2.6c-6.4,3.8-6.6,10.4-6.6,16.7c-0.1,77.7,0,155.3,0,233c0,1.2-0.1,2.3,0,3.5
		c0.9,11,5.9,16.2,15.7,16.2c61.5,0,123,0.1,184.5-0.1c3.1,0,6.6-1.2,9.3-2.8c6.1-3.7,6.2-10.2,6.3-16.4c0.1-56.2,0.1-112.3,0-168.5
		c0-1.7-0.6-3.5-0.9-5.2C278.7,114.6,278.4,114.3,278,113.9z"/>
	<path class="st1" d="M279,115c0.3,1.7,0.9,3.5,0.9,5.2c0,56.2,0.1,112.3,0,168.5c0,6.2-0.1,12.7-6.3,16.4c-2.7,1.6-6.2,2.8-9.3,2.8
		c-61.5,0.2-123,0.1-184.5,0.1c-9.8,0-14.7-5.2-15.7-16.2c-0.1-1.2,0-2.3,0-3.5c0-77.7,0-155.3,0-233c0-6.3,0.1-13,6.6-16.7
		c2.3-1.4,5.2-2.5,7.9-2.6c40.2-0.2,80.3-0.1,120.5-0.1c0.6,0,1.3,0.3,1.9,0.5c0,3.2,0,6.4,0,9.6c0,2.7,0,5.3,0,8c0,3.3,0,6.7,0,10
		c0,4.7,0,9.3,0,14c0,7.5-0.2,15-0.1,22.5c0.1,8,5.7,14,13.7,14.3c7.5,0.3,15-0.1,22.4-0.2c4.7,0,9.3,0,14,0c3.3,0,6.7,0,10,0
		c2.7,0,5.3,0,8,0c3,0.1,5.9,0.1,8.9,0.2C278.3,114.8,278.6,114.9,279,115z M200,206.4c-6.8-9-13.7-18.2-20.7-27.2
		c-2.4-3.1-2.7-6.3-1.7-10.2c2.7-10.8,5.4-21.7,3.4-33c-1.5-8.8-6.7-13.8-14.3-14c-10-0.3-16.2,5.8-16.7,16.4
		c-0.6,12.2,3.7,23.1,8.5,34c1,2.3,1.4,5.6,0.6,7.9c-3.4,10.1-7.5,19.9-11.2,29.9c-3.9,10.5-10,18.1-20.8,23
		c-8.8,4-16.4,11.1-24,17.5c-4,3.4-4.3,8.6-2.3,13.4c2.1,5,6.3,7.5,11.7,8.1c7.2,0.7,13.3-2.2,17.9-7.2c5.4-5.8,10.7-12,14.7-18.8
		c3.7-6.3,8.5-10.3,15.2-12.5c12.8-4.1,25.4-8.5,37.5-12.5c12.2,9.4,24.3,14.3,38.6,12c9.2-1.5,14.1-6.1,14.4-13.8
		c0.3-7.1-5-13.8-13.3-15.1c-6.2-1-12.6-1-18.8-0.6C213,203.9,207.3,205.3,200,206.4z"/>
	<path class="st2" d="M201,46c0-3.2,0-6.4,0-9.6c9.8,9.7,19.7,19.4,29.5,29.1c14.8,14.7,29.5,29.4,44.2,44.2
		c1.3,1.3,2.3,2.8,3.4,4.2c-0.1,0.2-0.1,0.5-0.1,0.7c-3-0.1-5.9-0.1-8.9-0.2c-0.9-1.9-1.3-4.1-2.7-5.5c-20-20.2-40.1-40.3-60.3-60.3
		C204.8,47.4,202.7,46.9,201,46z"/>
	<path class="st3" d="M277.9,114.7c0-0.3,0-0.5,0.1-0.7c0.3,0.4,0.6,0.7,0.9,1.1C278.6,114.9,278.3,114.8,277.9,114.7z"/>
	<path class="st4" d="M200,206.4c7.3-1.1,13-2.5,18.7-2.8c6.3-0.4,12.7-0.4,18.8,0.6c8.3,1.4,13.6,8.1,13.3,15.1
		c-0.3,7.7-5.2,12.3-14.4,13.8c-14.3,2.3-26.5-2.6-38.6-12c-12,4-24.7,8.4-37.5,12.5c-6.8,2.2-11.5,6.2-15.2,12.5
		c-4,6.8-9.3,13-14.7,18.8c-4.6,4.9-10.7,7.9-17.9,7.2c-5.4-0.5-9.6-3.1-11.7-8.1c-2.1-4.8-1.7-10.1,2.3-13.4
		c7.6-6.4,15.2-13.4,24-17.5c10.8-4.9,17-12.5,20.8-23c3.7-10,7.7-19.8,11.2-29.9c0.8-2.3,0.4-5.6-0.6-7.9
		c-4.7-10.9-9.1-21.8-8.5-34c0.6-10.6,6.7-16.6,16.7-16.4c7.6,0.2,12.8,5.3,14.3,14c2,11.3-0.7,22.2-3.4,33c-1,4-0.7,7.1,1.7,10.2
		C186.3,188.2,193.2,197.4,200,206.4z M170.5,192.7c-3.5,8.6-6.7,16.6-10.4,25.6c9-2.8,16.9-5.2,25-7.6
		C180.2,204.7,175.6,198.9,170.5,192.7z"/>
	<path class="st3" d="M237,114.6c-7.5,0.1-15,0.5-22.4,0.2c-8-0.3-13.6-6.3-13.7-14.3c-0.1-7.5,0-15,0.1-22.5
		c1.2,0.7,2.7,1.3,3.7,2.2c10.1,10,20.2,20,30.1,30.1C235.9,111.5,236.3,113.1,237,114.6z"/>
	<path class="st5" d="M237,114.6c-0.7-1.4-1.2-3.1-2.2-4.2c-10-10.1-20-20.2-30.1-30.1c-1-1-2.4-1.5-3.7-2.2c0-4.7,0-9.3,0-14
		c1.2,0.7,2.7,1.3,3.7,2.3c14.7,14.6,29.4,29.3,44.1,44.1c1.1,1.1,1.5,2.8,2.3,4.2C246.4,114.5,241.7,114.5,237,114.6z"/>
	<path class="st6" d="M201,46c1.7,0.9,3.7,1.4,5,2.6c20.2,20,40.3,40.1,60.3,60.3c1.4,1.4,1.8,3.7,2.7,5.5c-2.7,0-5.3,0-8,0
		c-1-1.6-1.7-3.6-3-4.9C240.5,92,223,74.5,205.4,57c-1.2-1.2-2.9-2-4.4-3C201,51.3,201,48.7,201,46z"/>
	<path class="st7" d="M201,54c1.5,1,3.2,1.7,4.4,3c17.6,17.5,35.1,35,52.6,52.6c1.3,1.3,2,3.2,3,4.9c-3.3,0-6.7,0-10,0
		c-0.7-1.4-1.2-3.1-2.3-4.2c-14.6-14.8-29.3-29.4-44.1-44.1c-1-1-2.4-1.5-3.7-2.3C201,60.7,201,57.3,201,54z"/>
	<path class="st8" d="M170.5,192.7c5.1,6.3,9.7,12,14.6,18c-8.1,2.5-16,4.9-25,7.6C163.8,209.3,167,201.3,170.5,192.7z"/>
</g>
</svg>
