<?xml version="1.0" encoding="utf-8"?>
<!-- Generator: Adobe Illustrator 22.0.1, SVG Export Plug-In . SVG Version: 6.00 Build 0)  -->
<svg version="1.1" id="Layer_1" xmlns="http://www.w3.org/2000/svg" xmlns:xlink="http://www.w3.org/1999/xlink" x="0px" y="0px"
	 viewBox="0 0 256 256" style="enable-background:new 0 0 256 256;" xml:space="preserve">
<style type="text/css">
	.st0{fill:#F74545;}
	.st1{fill:#FEFDFD;}
	.st2{fill:#D2D2DA;}
	.st3{fill:#F74949;}
	.st4{fill:#060606;}
	.st5{fill:#030303;}
	.st6{fill:#080808;}
	.st7{fill:#FEF4F4;}
	.st8{fill:#FDECEC;}
	.st9{fill:#FEF1F1;}
	.st10{fill:#FDEBEB;}
	.st11{fill:#F6F6F6;}
	.st12{fill:#EBEBEB;}
</style>
<g>
	<path class="st0" d="M142,256c-9.7,0-19.3,0-29,0c-1.4-1.9-3.6-1.3-5.4-1.6c-53.4-9.3-93.2-47.4-104.9-100.5
		c-0.8-3.6-0.5-7.5-2.6-10.8c0-10,0-20,0-30c1.9-1.6,1.4-4,1.7-5.9C11,54.1,49.6,14,102.2,2.6c3.9-0.9,8.2-0.4,11.8-2.6
		c9.3,0,18.7,0,28,0c0.6,1.5,2,0.9,3,1.1c54.5,7.8,96.8,47.2,108.4,101.1c0.9,4,0.5,8.2,2.6,11.9c0,9.7,0,19.3,0,29
		c-2,1.8-1.4,4.3-1.8,6.4c-8.5,50.1-46.3,90.8-95.5,102.8C153.2,253.6,147.3,253.8,142,256z M167,40.2c-1.5-0.1-3-0.2-4.5-0.2
		c-32.5,0-65,0-97.4,0c-7.6,0-9.1,1.5-9.1,9c0,52.6,0,105.3,0,157.9c0,7.6,1.5,9.1,9,9.1c42,0,83.9,0,125.9,0c7.6,0,9.1-1.5,9.1-9
		c0-43.6,0-87.3,0-130.9c0-1.8,0.6-3.7-0.6-5.3C188.9,60.2,178.2,50,167,40.2z"/>
	<path class="st1" d="M256,114c-2.1-3.7-1.8-7.9-2.6-11.9C241.8,48.3,199.5,8.8,145,1.1c-1-0.1-2.4,0.4-3-1.1c38,0,76,0,114,0
		C256,38,256,76,256,114z"/>
	<path class="st1" d="M114,0c-3.7,2.2-7.9,1.8-11.8,2.6C49.6,14,11,54.1,1.7,107.1c-0.3,2,0.2,4.4-1.7,5.9C0,75.3,0,37.7,0,0
		C38,0,76,0,114,0z"/>
	<path class="st1" d="M142,256c5.3-2.2,11.2-2.4,16.7-3.7c49.2-12,87.1-52.8,95.5-102.8c0.4-2.1-0.2-4.7,1.8-6.4
		c0,37.7,0,75.3,0,113C218,256,180,256,142,256z"/>
	<path class="st1" d="M0,143c2.1,3.3,1.8,7.2,2.6,10.8c11.7,53.1,51.5,91.2,104.9,100.5c1.8,0.3,4-0.3,5.4,1.6c-37.6,0-75.2,0-113,0
		C0,218.3,0,180.7,0,143z"/>
	<path class="st1" d="M199.3,70.8c1.2,1.7,0.6,3.5,0.6,5.3c0,43.6,0,87.3,0,130.9c0,7.5-1.5,9-9.1,9c-42,0-83.9,0-125.9,0
		c-7.5,0-9-1.5-9-9.1c0-52.6,0-105.3,0-157.9c0-7.5,1.5-9,9.1-9c32.5,0,65,0,97.4,0c1.5,0,3,0.1,4.5,0.2c0,9,0.1,17.9,0,26.9
		c0,2.6,0.5,4,3.5,4C180.1,70.9,189.7,70.9,199.3,70.8z M133,73.9c-0.1-1-0.3-3-0.7-4.9c-1.5-5.9-5.4-9.3-9.8-8.9
		c-4.8,0.4-8.3,4.8-8.6,10.7c-0.2,4.5-0.8,9.6,1.6,13.2c5.4,8.3,2.5,15.3-1.5,22.7c-1,1.8-1.8,3.6-2.5,5.4c-1.1,3-3,4.8-6.2,5.9
		c-7.8,2.8-14.7,7.2-19.4,14.2c-3.4,5-2.5,10.6,1.8,13.9c3.8,3,8.9,2.5,13.1-1.5c4-3.8,7.5-8.3,9.5-13.4c3-7.7,8.6-10.3,16-11.1
		c2-0.2,4-0.6,5.9-1c5-1,9.1-0.5,12.8,3.9c3.9,4.8,9.1,8.3,15.7,8.9c5.3,0.5,9.7-2.3,10.9-6.8c1.2-4.4-0.7-8.7-5.2-11.3
		c-4-2.3-8.6-4-12.9-3.4c-9.5,1.2-14.7-4.2-19.5-10.8c-1.1-1.5-2.2-3-3.4-4.3c-1.6-1.8-1.8-3.5-1-5.9
		C131.5,84.8,132.8,79.9,133,73.9z M116.2,196.2c9.1-1,19.3,2.8,24.5-7.6c3.2-6.4,3.1-13.6-1.5-19.4c-6.2-7.8-15.1-4.4-23-5.2
		C116.2,175,116.2,185.2,116.2,196.2z M88.3,164.1c0,10.9,0,21.3,0,31.7c2.4,0,4.4,0,6.9,0c0-4.1,0-8,0-12.1c2.7-0.2,5-0.2,7.3-0.4
		c6.6-0.6,9.8-3.8,9.8-9.6c0-5.7-3.4-9.2-9.9-9.5C97.8,163.8,93.2,164.1,88.3,164.1z M146.4,164.2c0,10.9,0,21.3,0,31.9
		c2.4-0.4,4.6,0.4,7-0.7c0-4.2,0-8.5,0-13.3c3.8,0,7.1,0,11,0c-0.6-2.3,0.5-4.1-0.9-5.7c-3.3-0.6-6.7,0.5-10-0.7c0-1.9,0-3.6,0-5.9
		c4.9,0,9.6,0,14.3,0c0-2.2,0-3.8,0-5.6C160.7,164.2,153.6,164.2,146.4,164.2z"/>
	<path class="st2" d="M199.3,70.8c-9.6,0.1-19.2,0.1-28.9,0.3c-3,0.1-3.5-1.4-3.5-4c0.1-9,0-17.9,0-26.9
		C178.2,50,188.9,60.2,199.3,70.8z"/>
	<path class="st3" d="M133,73.9c-0.2,6.1-1.6,10.9-3.3,15.6c-0.9,2.4-0.7,4.1,1,5.9c1.2,1.4,2.3,2.8,3.4,4.3
		c4.8,6.6,10,12,19.5,10.8c4.3-0.5,8.9,1.1,12.9,3.4c4.5,2.6,6.5,6.9,5.2,11.3c-1.3,4.5-5.6,7.2-10.9,6.8
		c-6.6-0.6-11.7-4.1-15.7-8.9c-3.7-4.5-7.8-5-12.8-3.9c-2,0.4-3.9,0.8-5.9,1c-7.4,0.8-13,3.4-16,11.1c-2,5.1-5.5,9.5-9.5,13.4
		c-4.2,4-9.3,4.6-13.1,1.5c-4.2-3.3-5.1-8.9-1.8-13.9c4.7-7.1,11.6-11.4,19.4-14.2c3.1-1.1,5-2.9,6.2-5.9c0.7-1.9,1.5-3.7,2.5-5.4
		c4-7.3,6.9-14.4,1.5-22.7c-2.4-3.7-1.8-8.7-1.6-13.2c0.3-5.9,3.8-10.2,8.6-10.7c4.4-0.4,8.4,3.1,9.8,8.9
		C132.8,70.9,132.9,72.9,133,73.9z M125.1,101.4c-1.9,4.3-3.3,7.8-5.1,11.9c4.8-0.9,8.7-1.7,13.1-2.5
		C130.3,107.5,128,104.8,125.1,101.4z M92.8,139.5c4.3-1.8,6.8-5,7.7-9.4C96.6,132.2,92.7,134.2,92.8,139.5z M152.5,119.4
		c4,2.9,6.8,5.8,12.3,3.5C161.1,119.4,157.6,118.5,152.5,119.4z M123.4,81.9c2.5-7.2,2.3-10.4-1.1-13.3
		C121.6,73.2,121.3,77.5,123.4,81.9z"/>
	<path class="st4" d="M116.2,196.2c0-10.9,0-21.2,0-32.3c8,0.8,16.9-2.6,23,5.2c4.6,5.8,4.6,13,1.5,19.4
		C135.5,199,125.3,195.2,116.2,196.2z M123.4,170.2c0,6.6,0,13.2,0,19.8c4.1,0.2,8.2,0.8,10.4-3.4c2.2-4.3,2.2-9.1-0.1-13.4
		C131.5,169.2,127.4,169.7,123.4,170.2z"/>
	<path class="st5" d="M88.3,164.1c4.9,0,9.5-0.2,14.2,0.1c6.5,0.4,9.9,3.9,9.9,9.5c0,5.8-3.2,8.9-9.8,9.6c-2.3,0.2-4.6,0.3-7.3,0.4
		c0,4.1,0,8,0,12.1c-2.5,0-4.6,0-6.9,0C88.3,185.4,88.3,175,88.3,164.1z M95.4,177.7c3.4-0.2,6.8,0.8,9.2-1.9c1-1.1,1-3,0-4.2
		c-2.6-3-6-1.4-9.2-1.7C94.9,172.6,94.9,174.8,95.4,177.7z"/>
	<path class="st6" d="M146.4,164.2c7.2,0,14.2,0,21.4,0c0,1.8,0,3.5,0,5.6c-4.7,0-9.4,0-14.3,0c0,2.3,0,4.1,0,5.9
		c3.3,1.2,6.7,0.1,10,0.7c1.3,1.6,0.3,3.4,0.9,5.7c-3.8,0-7.2,0-11,0c0,4.8,0,9.1,0,13.3c-2.4,1.1-4.6,0.3-7,0.7
		C146.4,185.5,146.4,175.1,146.4,164.2z"/>
	<path class="st7" d="M125.1,101.4c2.9,3.4,5.2,6.1,8,9.4c-4.4,0.8-8.3,1.6-13.1,2.5C121.7,109.1,123.2,105.7,125.1,101.4z"/>
	<path class="st8" d="M92.8,139.5c-0.1-5.3,3.7-7.4,7.7-9.4C99.7,134.6,97.1,137.7,92.8,139.5z"/>
	<path class="st9" d="M152.5,119.4c5.1-0.9,8.6,0.1,12.3,3.5C159.3,125.2,156.4,122.3,152.5,119.4z"/>
	<path class="st10" d="M123.4,81.9c-2.2-4.4-1.8-8.7-1.1-13.3C125.7,71.5,125.9,74.6,123.4,81.9z"/>
	<path class="st11" d="M123.4,170.2c4-0.5,8-1,10.2,3c2.3,4.3,2.3,9,0.1,13.4c-2.1,4.2-6.2,3.6-10.4,3.4
		C123.4,183.3,123.4,176.8,123.4,170.2z"/>
	<path class="st12" d="M95.4,177.7c-0.5-2.8-0.5-5.1,0-7.7c3.2,0.3,6.7-1.3,9.2,1.7c1,1.2,1,3.1,0,4.2
		C102.2,178.5,98.9,177.5,95.4,177.7z"/>
</g>
</svg>
