<?xml version="1.0" encoding="utf-8"?>
<!-- Generator: Adobe Illustrator 22.0.1, SVG Export Plug-In . SVG Version: 6.00 Build 0)  -->
<svg version="1.1" id="Layer_1" xmlns="http://www.w3.org/2000/svg" xmlns:xlink="http://www.w3.org/1999/xlink" x="0px" y="0px"
	 viewBox="0 0 344 344" style="enable-background:new 0 0 344 344;" xml:space="preserve">
<style type="text/css">
	.st0{fill:#FEFEFE;}
	.st1{fill:#FE5823;}
	.st2{fill:#FEFBFB;}
	.st3{fill:#FAE8E6;}
	.st4{fill:#FE5C29;}
</style>
<g>
	<path class="st0" d="M0,344C0,229.3,0,114.7,0,0c114.7,0,229.3,0,344,0c0,114.7,0,229.3,0,344C229.3,344,114.7,344,0,344z
		 M286.5,322.3c0.1-1.7,0.2-3,0.2-4.3c0-73.7,0-147.3-0.1-221c0-2.3-1.4-5.1-3-6.8c-21.7-21.9-43.5-43.7-65.4-65.4
		c-1.9-1.8-5.1-3.2-7.7-3.2c-49.3-0.2-98.7-0.1-148-0.1c-1.6,0-3.2,0.1-5,0.2c0,100.4,0,200.3,0,300.6
		C133.8,322.3,209.9,322.3,286.5,322.3z"/>
	<path class="st1" d="M286.5,322.3c-76.7,0-152.7,0-229.1,0c0-100.3,0-200.2,0-300.6c1.8-0.1,3.4-0.2,5-0.2c49.3,0,98.7-0.1,148,0.1
		c2.6,0,5.8,1.4,7.7,3.2c22,21.6,43.7,43.5,65.4,65.4c1.7,1.7,3,4.5,3,6.8c0.2,73.7,0.1,147.3,0.1,221
		C286.8,319.3,286.6,320.6,286.5,322.3z M231.4,240.9c1.7-0.2,5.1-0.4,8.3-1.2c5.1-1.3,9-4.1,10.5-9.6c2.4-8.9-3.2-17-13.4-19.1
		c-10.2-2.1-20.2-0.4-30.2,1.7c-3.8,0.8-6.7,0.3-9.2-2.9c-6.1-8.1-12.3-16.1-18.5-24.1c-2.3-2.9-2.2-5.8-1.4-9.3
		c2.7-10.8,5.3-21.7,3.5-33c-1.9-11.6-11.1-17.3-21.5-13.1c-7,2.8-9.2,8.8-9.6,15.6c-0.7,12,3.8,22.8,8.3,33.6
		c1.1,2.5,1.6,5.9,0.7,8.3c-4.7,12.6-10,25-14.9,37.5c-2.3,5.8-6.1,9.6-12,12.3c-10.5,4.7-20.4,10.5-28.3,19.2
		c-3.7,4.2-5.2,9-3,14.3c2.2,5.2,6.5,7.8,12.1,8.3c7.6,0.7,13.9-2.7,18.5-8.1c6-6.9,10.9-14.6,16.6-21.8c2-2.5,4.4-5.2,7.2-6.2
		c13.1-4.8,26.4-9.2,39.7-13.3c1.9-0.6,4.9,0.1,6.6,1.3C210.1,237,219.3,240.7,231.4,240.9z M273.9,99.9
		C252,78.1,230,56.1,208.3,34.4c0,21.3,0,43.5,0,65.5C230.7,99.9,252.5,99.9,273.9,99.9z"/>
	<path class="st2" d="M231.4,240.9c-12.1-0.2-21.4-3.9-29.9-9.8c-1.7-1.2-4.7-1.9-6.6-1.3c-13.3,4.2-26.6,8.5-39.7,13.3
		c-2.8,1-5.3,3.8-7.2,6.2c-5.7,7.2-10.6,14.9-16.6,21.8c-4.7,5.4-10.9,8.8-18.5,8.1c-5.6-0.5-9.9-3.1-12.1-8.3
		c-2.2-5.3-0.7-10.1,3-14.3c7.9-8.7,17.8-14.5,28.3-19.2c5.9-2.7,9.7-6.4,12-12.3c5-12.5,10.2-24.9,14.9-37.5
		c0.9-2.4,0.4-5.9-0.7-8.3c-4.6-10.8-9-21.6-8.3-33.6c0.4-6.8,2.6-12.8,9.6-15.6c10.3-4.1,19.6,1.6,21.5,13.1
		c1.8,11.3-0.8,22.2-3.5,33c-0.9,3.5-0.9,6.4,1.4,9.3c6.2,8,12.4,16,18.5,24.1c2.4,3.2,5.3,3.7,9.2,2.9c10-2.1,20-3.8,30.2-1.7
		c10.2,2.1,15.8,10.2,13.4,19.1c-1.5,5.5-5.4,8.3-10.5,9.6C236.5,240.5,233.1,240.7,231.4,240.9z M170.5,199.8
		c-3.5,8.6-6.9,16.8-10.5,25.7c8.9-2.8,16.9-5.2,25-7.8C180.2,211.7,175.5,206,170.5,199.8z"/>
	<path class="st3" d="M273.9,99.9c-21.3,0-43.2,0-65.5,0c0-22.1,0-44.2,0-65.5C230,56.1,252,78.1,273.9,99.9z"/>
	<path class="st4" d="M170.5,199.8c5,6.1,9.6,11.9,14.5,18c-8.2,2.5-16.1,5-25,7.8C163.7,216.6,167,208.5,170.5,199.8z"/>
</g>
</svg>
