<?xml version="1.0" encoding="utf-8"?>
<!-- Generator: Adobe Illustrator 22.0.1, SVG Export Plug-In . SVG Version: 6.00 Build 0)  -->
<svg version="1.1" id="Layer_1" xmlns="http://www.w3.org/2000/svg" xmlns:xlink="http://www.w3.org/1999/xlink" x="0px" y="0px"
	 viewBox="0 0 344 344" style="enable-background:new 0 0 344 344;" xml:space="preserve">
<style type="text/css">
	.st0{fill:#FEFEFE;}
	.st1{fill:#FEADC7;}
	.st2{fill:#E62737;}
	.st3{fill:#E72A3A;}
	.st4{fill:#E72839;}
	.st5{fill:#E72B3B;}
	.st6{fill:#FEAAC5;}
	.st7{fill:#FEABC5;}
</style>
<g>
	<path class="st0" d="M0,344C0,229.3,0,114.7,0,0c114.7,0,229.3,0,344,0c0,114.7,0,229.3,0,344C229.3,344,114.7,344,0,344z
		 M278.8,115c-1.1-1.4-2-3-3.2-4.2c-17.8-17.9-35.7-35.8-53.6-53.7c-6.9-6.9-14-13.7-21-20.6c-0.6-0.2-1.3-0.5-1.9-0.5
		c-40.1,0-80.3-0.1-120.4,0.1c-2.6,0-5.5,1.2-7.9,2.5c-6.4,3.7-6.6,10.4-6.6,16.7c-0.1,77.8,0,155.6,0,233.4c0,1-0.1,2,0,3
		C65,302.6,70,308,79.6,308c61.6,0,123.3,0.1,184.9-0.1c3,0,6.2-1.2,8.8-2.7c6.2-3.6,6.5-10.1,6.5-16.3c0.1-56.3,0.1-112.6,0-168.9
		C279.8,118.4,279.2,116.7,278.8,115z"/>
	<path class="st1" d="M278.8,115c0.4,1.7,1,3.4,1,5.1c0.1,56.3,0.1,112.6,0,168.9c0,6.1-0.2,12.7-6.5,16.3c-2.6,1.5-5.9,2.6-8.8,2.7
		c-61.6,0.2-123.3,0.1-184.9,0.1c-9.7,0-14.7-5.4-15.5-16.4c-0.1-1,0-2,0-3c0-77.8,0-155.6,0-233.4c0-6.3,0.2-13,6.6-16.7
		c2.3-1.4,5.2-2.5,7.9-2.5C118.8,35.9,159,36,199.1,36c0.6,0,1.3,0.3,1.9,0.5c-0.1,20.3-0.2,40.6-0.2,60.9
		c0,12.4,5.2,17.5,17.6,17.5C238.6,114.9,258.7,114.9,278.8,115z M154.4,212.5c10.1-0.9,19.9-0.8,29.4-2.8
		c10.2-2.2,16.6-11.9,17.2-22.7c0.7-12.9-3.5-21.3-12.8-25.3c-11-4.8-22.5-1.9-33.7-2.8C154.4,177,154.4,194,154.4,212.5z
		 M108.4,159.2c0,17.8,0,34.9,0,52.3c4,0,7.5,0,11.7,0c0-6,0-11.7,0-17.4c4.2-0.4,7.9-0.5,11.5-1.1c9-1.5,15.4-9,15.1-17.7
		c-0.3-9.1-5.3-15.1-14.7-15.9C124.3,158.6,116.5,159.2,108.4,159.2z M238.6,181.2c-5.6,0-11,0-16.4,0c0-4.5,0-8.2,0-12.5
		c6.1,0,11.8,0,17.7,0c0-3.5,0-6.4,0-9.4c-10,0-19.8,0-29.6,0c0,17.5,0,34.7,0,52.2c3.9,0,7.5,0,11.7,0c0-6.8,0-13.4,0-20.6
		c6,0,11.4,0,16.8,0C238.6,187.4,238.6,184.7,238.6,181.2z"/>
	<path class="st2" d="M278.8,115c-20.1,0-40.2-0.1-60.4-0.1c-12.5,0-17.7-5.1-17.6-17.5c0-20.3,0.1-40.6,0.2-60.9
		c7,6.9,14,13.7,21,20.6c17.9,17.9,35.8,35.8,53.6,53.7C276.9,112,277.8,113.5,278.8,115z"/>
	<path class="st3" d="M154.4,212.5c0-18.4,0-35.5,0-53.7c11.3,1,22.8-2,33.7,2.8c9.3,4.1,13.4,12.5,12.8,25.3
		c-0.5,10.8-6.9,20.5-17.2,22.7C174.4,211.7,164.5,211.6,154.4,212.5z M166.4,201.7c7.7,0.7,14.7,0.4,19.3-6.6
		c3.6-5.5,3.5-15.3-0.2-20.4c-4.9-6.7-11.9-6.2-19.2-5.7C166.4,179.9,166.4,190.5,166.4,201.7z"/>
	<path class="st4" d="M108.4,159.2c8.1,0,15.9-0.5,23.6,0.1c9.3,0.8,14.4,6.8,14.7,15.9c0.3,8.7-6.1,16.2-15.1,17.7
		c-3.6,0.6-7.3,0.7-11.5,1.1c0,5.7,0,11.4,0,17.4c-4.2,0-7.8,0-11.7,0C108.4,194.1,108.4,176.9,108.4,159.2z M120.2,184.3
		c5.1-0.2,10.5,1.3,12.8-4.2c1-2.5,0.8-6.6-0.6-8.8c-2.8-4.1-7.6-3.6-12.1-2.8C120.2,173.7,120.2,178.7,120.2,184.3z"/>
	<path class="st5" d="M238.6,181.2c0,3.5,0,6.2,0,9.7c-5.4,0-10.8,0-16.8,0c0,7.2,0,13.8,0,20.6c-4.2,0-7.8,0-11.7,0
		c0-17.5,0-34.7,0-52.2c9.9,0,19.6,0,29.6,0c0,3,0,5.9,0,9.4c-5.9,0-11.6,0-17.7,0c0,4.3,0,8.1,0,12.5
		C227.6,181.2,233,181.2,238.6,181.2z"/>
	<path class="st6" d="M166.4,201.7c0-11.2,0-21.8,0-32.7c7.3-0.6,14.3-1,19.2,5.7c3.7,5.1,3.8,15,0.2,20.4
		C181.1,202.1,174,202.4,166.4,201.7z"/>
	<path class="st7" d="M120.2,184.3c0-5.6,0-10.5,0-15.8c4.5-0.8,9.3-1.3,12.1,2.8c1.5,2.2,1.7,6.3,0.6,8.8
		C130.7,185.6,125.3,184,120.2,184.3z"/>
</g>
</svg>
