<?xml version="1.0" encoding="utf-8"?>
<!-- Generator: Adobe Illustrator 22.0.1, SVG Export Plug-In . SVG Version: 6.00 Build 0)  -->
<svg version="1.1" id="Layer_1" xmlns="http://www.w3.org/2000/svg" xmlns:xlink="http://www.w3.org/1999/xlink" x="0px" y="0px"
	 viewBox="0 0 344 344" style="enable-background:new 0 0 344 344;" xml:space="preserve">
<style type="text/css">
	.st0{fill:#FFFFFF;}
</style>
<g>
	<path class="st0" d="M0,344C0,229.3,0,114.7,0,0c114.7,0,229.3,0,344,0c0,114.7,0,229.3,0,344C229.3,344,114.7,344,0,344z
		 M57.3,171.7c0,37.3,0,74.6,0,112c0,19.7,11.7,31.6,31.3,31.6c55.6,0,111.3,0,166.9,0c19.3,0,31.3-11.9,31.3-31.1
		c0-55,0.1-110-0.1-164.9c0-2.6-1.4-5.9-3.2-7.7C257,84.9,230.5,58.4,203.8,32c-1.8-1.7-4.8-3.1-7.3-3.1c-36.3-0.2-72.6-0.2-109-0.1
		c-2.8,0-5.7,0.1-8.4,0.8C65.7,33,57.3,44.3,57.3,59.2C57.2,96.7,57.3,134.2,57.3,171.7z"/>
	<path d="M57.3,171.7c0-37.5,0-75,0-112.5c0-14.9,8.4-26.3,21.9-29.6c2.7-0.7,5.6-0.8,8.4-0.8c36.3-0.1,72.6-0.1,109,0.1
		c2.5,0,5.5,1.4,7.3,3.1c26.6,26.4,53.2,52.9,79.5,79.5c1.8,1.9,3.2,5.1,3.2,7.7c0.2,55,0.2,110,0.1,164.9c0,19.2-12,31.1-31.3,31.1
		c-55.6,0-111.3,0-166.9,0c-19.5,0-31.2-11.9-31.3-31.6C57.2,246.3,57.3,209,57.3,171.7z M257.6,286.5c0-52.8,0-105,0-157.8
		c-23.9,0-47.5,0-71.6,0c0-24,0-47.6,0-71.1c-33.7,0-66.7,0-99.7,0c0,76.5,0,152.6,0,228.8C143.5,286.5,200.5,286.5,257.6,286.5z"/>
	<path class="st0" d="M257.6,286.5c-57.2,0-114.1,0-171.3,0c0-76.3,0-152.4,0-228.8c33,0,66,0,99.7,0c0,23.5,0,47,0,71.1
		c24.2,0,47.7,0,71.6,0C257.6,181.5,257.6,233.7,257.6,286.5z M202.8,203.9c-9.9,4.4-14.3-1.6-18-8.9c-1-1.9-2.1-3.8-3.3-5.6
		c-2.3-3.2-2.5-6.4-1.2-10.3c3.5-10.8,5.9-21.9,4.8-33.4c-1.2-12.7-11.5-20-21.6-15.5c-6,2.7-9.4,9.4-8.8,18.1
		c0.7,11.5,5,22,9.6,32.3c1,2.1,1.2,5.2,0.5,7.4c-2.4,7.2-5.2,14.4-8.4,21.3c-1,2.2-3.5,4.1-5.8,5.3c-7.7,3.9-15.9,6.9-23.2,11.4
		c-4.4,2.8-8.1,7.4-11,11.9c-3.2,4.9-1.7,11.6,2.6,16.1c4,4.2,9.1,4.9,14.2,2.8c3.5-1.4,7-3.4,9.6-6c4.3-4.5,9.2-9.3,11.6-14.9
		c5.4-12.5,15.2-17,27.6-18.3c0.2,0,0.3,0,0.5-0.1c3.1-1.3,5.1-0.2,7.3,2.2c5.9,6.4,12.5,12.1,21.1,14.5c7.6,2.1,14.9-2.3,17.5-10.2
		c2.7-7.9-0.1-14.4-8.2-17.1C214.6,205.3,208.5,204.9,202.8,203.9z"/>
	<path d="M202.8,203.9c5.7,1,11.8,1.4,17.4,3.2c8.1,2.7,10.9,9.2,8.2,17.1c-2.7,7.9-9.9,12.3-17.5,10.2c-8.7-2.4-15.2-8.1-21.1-14.5
		c-2.2-2.4-4.3-3.5-7.3-2.2c-0.2,0.1-0.3,0.1-0.5,0.1c-12.4,1.3-22.2,5.8-27.6,18.3c-2.4,5.6-7.2,10.3-11.6,14.9
		c-2.5,2.7-6.1,4.6-9.6,6c-5.1,2.1-10.2,1.4-14.2-2.8c-4.3-4.5-5.8-11.2-2.6-16.1c2.9-4.5,6.6-9.1,11-11.9
		c7.3-4.5,15.5-7.5,23.2-11.4c2.3-1.2,4.8-3.1,5.8-5.3c3.2-6.9,6-14.1,8.4-21.3c0.7-2.2,0.5-5.2-0.5-7.4
		c-4.6-10.4-8.9-20.8-9.6-32.3c-0.5-8.7,2.8-15.4,8.8-18.1c10.1-4.6,20.4,2.7,21.6,15.5c1.1,11.5-1.3,22.6-4.8,33.4
		c-1.3,3.9-1.1,7,1.2,10.3c1.2,1.8,2.4,3.6,3.3,5.6C188.5,202.3,192.9,208.3,202.8,203.9z"/>
</g>
</svg>
